<svg width="29" height="29" viewBox="0 0 29 29" fill="none" xmlns="http://www.w3.org/2000/svg">
<circle cx="15" cy="15" r="13" fill="#ACF1F5"/>
<path d="M9.1368 14.2994C9.11495 14.059 9.0177 13.8722 8.84506 13.7389C8.67461 13.6034 8.43094 13.5356 8.11407 13.5356C7.90428 13.5356 7.72946 13.5629 7.5896 13.6176C7.44974 13.6722 7.34484 13.7476 7.27491 13.8438C7.20498 13.9377 7.16892 14.0459 7.16674 14.1683C7.16237 14.2688 7.18204 14.3573 7.22574 14.4338C7.27163 14.5103 7.33719 14.578 7.42242 14.637C7.50983 14.6938 7.61473 14.7441 7.73711 14.7878C7.85948 14.8315 7.99716 14.8698 8.15013 14.9025L8.72705 15.0337C9.05922 15.1058 9.35205 15.2019 9.60555 15.3221C9.86123 15.4423 10.0754 15.5854 10.248 15.7515C10.4229 15.9176 10.5551 16.1088 10.6447 16.3252C10.7343 16.5415 10.7802 16.7841 10.7823 17.0529C10.7802 17.4768 10.6731 17.8407 10.4611 18.1444C10.2491 18.4482 9.94427 18.6809 9.54655 18.8427C9.15101 19.0044 8.67351 19.0852 8.11407 19.0852C7.55245 19.0852 7.06294 19.0011 6.64554 18.8328C6.22815 18.6646 5.90363 18.4089 5.67198 18.0658C5.44034 17.7227 5.32124 17.2889 5.31469 16.7644H6.86844C6.88156 16.9808 6.93947 17.1611 7.04218 17.3053C7.14489 17.4495 7.28584 17.5588 7.46504 17.6331C7.64642 17.7074 7.85621 17.7445 8.09441 17.7445C8.31294 17.7445 8.49869 17.715 8.65166 17.656C8.80682 17.597 8.92592 17.5151 9.00896 17.4102C9.092 17.3053 9.13462 17.1851 9.1368 17.0496C9.13462 16.9229 9.09528 16.8147 9.01879 16.7251C8.94231 16.6333 8.8243 16.5546 8.66477 16.4891C8.50743 16.4213 8.30638 16.359 8.06163 16.3022L7.36014 16.1383C6.77885 16.005 6.32102 15.7898 5.98667 15.4926C5.65232 15.1932 5.48623 14.7889 5.48842 14.2797C5.48623 13.8645 5.59768 13.5007 5.82277 13.1882C6.04786 12.8757 6.35927 12.632 6.75699 12.4572C7.15472 12.2823 7.60817 12.1949 8.11735 12.1949C8.63746 12.1949 9.08872 12.2834 9.47115 12.4604C9.85577 12.6353 10.1541 12.8811 10.366 13.198C10.578 13.5149 10.6862 13.882 10.6906 14.2994H9.1368ZM14.0833 19H11.6018V12.2867H14.08C14.764 12.2867 15.3529 12.4211 15.8468 12.6899C16.3429 12.9565 16.7253 13.3411 16.9941 13.8438C17.2629 14.3442 17.3973 14.943 17.3973 15.6401C17.3973 16.3394 17.2629 16.9403 16.9941 17.443C16.7275 17.9456 16.3462 18.3313 15.8501 18.6001C15.354 18.8667 14.7651 19 14.0833 19ZM13.2244 17.6167H14.021C14.3969 17.6167 14.7148 17.5533 14.9749 17.4266C15.2371 17.2976 15.4349 17.0889 15.5682 16.8005C15.7037 16.5098 15.7714 16.123 15.7714 15.6401C15.7714 15.1571 15.7037 14.7725 15.5682 14.4862C15.4327 14.1978 15.2327 13.9902 14.9683 13.8634C14.7061 13.7345 14.3826 13.67 13.998 13.67H13.2244V17.6167ZM24.4384 14.719H22.7994C22.7775 14.5507 22.7327 14.3988 22.665 14.2633C22.5972 14.1278 22.5076 14.012 22.3962 13.9159C22.2847 13.8197 22.1525 13.7465 21.9996 13.6962C21.8488 13.6438 21.6816 13.6176 21.498 13.6176C21.1724 13.6176 20.8916 13.6973 20.6556 13.8569C20.4218 14.0164 20.2415 14.2469 20.1147 14.5485C19.9902 14.8501 19.9279 15.215 19.9279 15.6434C19.9279 16.0892 19.9913 16.4628 20.118 16.7644C20.2469 17.0638 20.4272 17.29 20.6589 17.443C20.8927 17.5937 21.1691 17.6691 21.4882 17.6691C21.6674 17.6691 21.8302 17.6462 21.9766 17.6003C22.1252 17.5544 22.2552 17.4878 22.3667 17.4003C22.4803 17.3108 22.5732 17.2026 22.6453 17.0758C22.7196 16.9469 22.771 16.8016 22.7994 16.6399L24.4384 16.6497C24.41 16.9469 24.3236 17.2397 24.1794 17.5282C24.0374 17.8167 23.8418 18.08 23.5927 18.3182C23.3435 18.5542 23.0398 18.7421 22.6814 18.882C22.3252 19.0219 21.9165 19.0918 21.4554 19.0918C20.8479 19.0918 20.3038 18.9585 19.823 18.6919C19.3444 18.4231 18.9663 18.0319 18.6888 17.5184C18.4113 17.0048 18.2725 16.3798 18.2725 15.6434C18.2725 14.9047 18.4135 14.2786 18.6954 13.7651C18.9773 13.2515 19.3586 12.8615 19.8394 12.5948C20.3201 12.3282 20.8588 12.1949 21.4554 12.1949C21.8619 12.1949 22.2378 12.2517 22.583 12.3654C22.9283 12.4768 23.2321 12.6407 23.4943 12.8571C23.7566 13.0712 23.9696 13.3346 24.1335 13.6471C24.2974 13.9596 24.399 14.3169 24.4384 14.719Z" fill="#1900B4"/>
</svg>
