<svg width="46" height="15" viewBox="0 0 46 15" fill="none" xmlns="http://www.w3.org/2000/svg">
<path d="M8.60184 6.71897H6.96285C6.941 6.5507 6.8962 6.39882 6.82845 6.26333C6.76071 6.12784 6.67111 6.01202 6.55966 5.91587C6.44821 5.81971 6.316 5.7465 6.16302 5.69624C6.01224 5.64379 5.84506 5.61757 5.66149 5.61757C5.33588 5.61757 5.05507 5.69733 4.81906 5.85686C4.58523 6.01639 4.40494 6.24694 4.27819 6.54851C4.15363 6.85009 4.09135 7.21503 4.09135 7.64336C4.09135 8.08916 4.15472 8.46285 4.28147 8.76442C4.4104 9.06381 4.59069 9.28999 4.82233 9.44296C5.05616 9.59375 5.3326 9.66914 5.65166 9.66914C5.83086 9.66914 5.99366 9.6462 6.14008 9.60031C6.28868 9.55441 6.41871 9.48776 6.53016 9.40035C6.64379 9.31075 6.73667 9.20258 6.80879 9.07583C6.88309 8.9469 6.93444 8.80157 6.96285 8.63986L8.60184 8.64969C8.57343 8.9469 8.48711 9.23973 8.34288 9.52819C8.20083 9.81665 8.00524 10.08 7.75612 10.3182C7.50699 10.5542 7.20323 10.7421 6.84484 10.882C6.48864 11.0219 6.07998 11.0918 5.61888 11.0918C5.01136 11.0918 4.46722 10.9585 3.98645 10.6919C3.50787 10.4231 3.12981 10.0319 2.85227 9.51836C2.57474 9.00481 2.43597 8.37981 2.43597 7.64336C2.43597 6.90472 2.57692 6.27863 2.85883 5.76508C3.14073 5.25153 3.52207 4.86145 4.00284 4.59484C4.48361 4.32823 5.02229 4.19493 5.61888 4.19493C6.02535 4.19493 6.40122 4.25175 6.7465 4.36538C7.09178 4.47684 7.39554 4.64073 7.65778 4.85708C7.92002 5.07124 8.13309 5.33457 8.29698 5.64707C8.46088 5.95957 8.5625 6.31687 8.60184 6.71897ZM15.8666 7.64336C15.8666 8.38199 15.7246 9.00809 15.4405 9.52163C15.1564 10.0352 14.7718 10.4253 14.2867 10.6919C13.8037 10.9585 13.2617 11.0918 12.6608 11.0918C12.0576 11.0918 11.5146 10.9574 11.0316 10.6886C10.5487 10.4198 10.1652 10.0297 9.88106 9.51836C9.59916 9.00481 9.45821 8.37981 9.45821 7.64336C9.45821 6.90472 9.59916 6.27863 9.88106 5.76508C10.1652 5.25153 10.5487 4.86145 11.0316 4.59484C11.5146 4.32823 12.0576 4.19493 12.6608 4.19493C13.2617 4.19493 13.8037 4.32823 14.2867 4.59484C14.7718 4.86145 15.1564 5.25153 15.4405 5.76508C15.7246 6.27863 15.8666 6.90472 15.8666 7.64336ZM14.208 7.64336C14.208 7.20629 14.1457 6.83698 14.0211 6.5354C13.8988 6.23383 13.7218 6.00546 13.4901 5.85031C13.2607 5.69515 12.9842 5.61757 12.6608 5.61757C12.3395 5.61757 12.0631 5.69515 11.8315 5.85031C11.5998 6.00546 11.4217 6.23383 11.2971 6.5354C11.1748 6.83698 11.1136 7.20629 11.1136 7.64336C11.1136 8.08042 11.1748 8.44974 11.2971 8.75131C11.4217 9.05288 11.5998 9.28125 11.8315 9.43641C12.0631 9.59156 12.3395 9.66914 12.6608 9.66914C12.9842 9.66914 13.2607 9.59156 13.4901 9.43641C13.7218 9.28125 13.8988 9.05288 14.0211 8.75131C14.1457 8.44974 14.208 8.08042 14.208 7.64336ZM16.814 11V4.28671H18.4366V9.68226H21.2294V11H16.814ZM22.0694 11V4.28671H23.692V9.68226H26.4848V11H22.0694ZM27.3248 11V4.28671H32.0057V5.60446H28.9474V6.98121H31.7664V8.30223H28.9474V9.68226H32.0057V11H27.3248ZM37.4275 6.47968C37.3904 6.342 37.3357 6.22072 37.2636 6.11582C37.1915 6.00874 37.103 5.91805 36.9981 5.84375C36.8932 5.76945 36.773 5.71372 36.6375 5.67657C36.502 5.63724 36.3534 5.61757 36.1917 5.61757C35.8661 5.61757 35.5842 5.69624 35.346 5.85358C35.11 6.01093 34.9275 6.24038 34.7986 6.54196C34.6696 6.84135 34.6052 7.2052 34.6052 7.63352C34.6052 8.06403 34.6675 8.43116 34.792 8.73492C34.9166 9.03868 35.0969 9.27032 35.3329 9.42985C35.5689 9.58938 35.8552 9.66914 36.1917 9.66914C36.4889 9.66914 36.7402 9.62107 36.9456 9.52491C37.1532 9.42657 37.3106 9.28781 37.4177 9.10861C37.5247 8.92941 37.5783 8.71853 37.5783 8.47596L37.8799 8.51202H36.2474V7.32867H39.1419V8.217C39.1419 8.81796 39.014 9.3326 38.7584 9.76093C38.5049 10.1892 38.1552 10.5181 37.7094 10.7476C37.2658 10.9771 36.7555 11.0918 36.1786 11.0918C35.5383 11.0918 34.9756 10.953 34.4904 10.6755C34.0053 10.3979 33.6272 10.0024 33.3563 9.48885C33.0853 8.97312 32.9498 8.36123 32.9498 7.65319C32.9498 7.10249 33.0317 6.61407 33.1956 6.18794C33.3595 5.75962 33.5879 5.39685 33.8807 5.09965C34.1758 4.80245 34.5167 4.57736 34.9035 4.42439C35.2925 4.27142 35.7109 4.19493 36.1589 4.19493C36.5479 4.19493 36.9096 4.25066 37.2439 4.36211C37.5805 4.47356 37.8777 4.6309 38.1355 4.83413C38.3956 5.03737 38.6065 5.27885 38.7682 5.55857C38.9299 5.83829 39.0304 6.14532 39.0698 6.47968H37.4275ZM40.0982 11V4.28671H44.7792V5.60446H41.7208V6.98121H44.5399V8.30223H41.7208V9.68226H44.7792V11H40.0982Z" fill="#1900B4"/>
</svg>
