<svg width="59" height="59" viewBox="0 0 59 59" fill="none" xmlns="http://www.w3.org/2000/svg">
<g clip-path="url(#clip0_6_6)">
<circle cx="30.2564" cy="28.7436" r="24.2051" fill="#ACF1F5"/>
<path d="M14.2193 32.6923V24.7126H17.5156C18.1131 24.7126 18.6287 24.8295 19.0625 25.0633C19.4989 25.2944 19.8352 25.6178 20.0716 26.0335C20.308 26.4465 20.4262 26.927 20.4262 27.4751C20.4262 28.0258 20.3054 28.5076 20.0638 28.9206C19.8249 29.3311 19.4833 29.6493 19.0391 29.8752C18.5949 30.1012 18.0676 30.2142 17.4572 30.2142H15.4233V28.6947H17.0987C17.3896 28.6947 17.6325 28.644 17.8273 28.5427C18.0247 28.4414 18.1741 28.2998 18.2754 28.118C18.3767 27.9336 18.4274 27.7193 18.4274 27.4751C18.4274 27.2283 18.3767 27.0153 18.2754 26.8361C18.1741 26.6543 18.0247 26.514 17.8273 26.4153C17.6299 26.3166 17.387 26.2672 17.0987 26.2672H16.148V32.6923H14.2193ZM28.6202 27.6037H26.672C26.6461 27.4037 26.5928 27.2231 26.5123 27.0621C26.4318 26.901 26.3253 26.7634 26.1928 26.6491C26.0603 26.5348 25.9032 26.4478 25.7213 26.388C25.5421 26.3257 25.3434 26.2945 25.1252 26.2945C24.7381 26.2945 24.4044 26.3893 24.1238 26.5789C23.8459 26.7686 23.6316 27.0426 23.4809 27.4011C23.3329 27.7595 23.2588 28.1933 23.2588 28.7025C23.2588 29.2324 23.3342 29.6765 23.4848 30.035C23.6381 30.3909 23.8524 30.6597 24.1277 30.8415C24.4057 31.0208 24.7343 31.1104 25.1135 31.1104C25.3265 31.1104 25.52 31.0831 25.6941 31.0286C25.8707 30.974 26.0252 30.8948 26.1577 30.7909C26.2928 30.6844 26.4032 30.5558 26.4889 30.4052C26.5772 30.2519 26.6383 30.0792 26.672 29.8869L28.6202 29.8986C28.5864 30.2519 28.4838 30.6 28.3124 30.9428C28.1436 31.2857 27.9111 31.5987 27.6149 31.8819C27.3188 32.1624 26.9578 32.3858 26.5318 32.552C26.1084 32.7183 25.6226 32.8014 25.0745 32.8014C24.3524 32.8014 23.7056 32.643 23.1342 32.3261C22.5653 32.0065 22.1159 31.5416 21.786 30.9312C21.4561 30.3207 21.2912 29.5778 21.2912 28.7025C21.2912 27.8245 21.4587 27.0803 21.7938 26.4698C22.1289 25.8594 22.5822 25.3958 23.1536 25.0789C23.7251 24.7619 24.3654 24.6035 25.0745 24.6035C25.5577 24.6035 26.0045 24.671 26.4149 24.8061C26.8253 24.9386 27.1864 25.1334 27.4981 25.3906C27.8098 25.6451 28.063 25.9581 28.2578 26.3296C28.4527 26.701 28.5734 27.1257 28.6202 27.6037ZM29.7238 24.7126H32.1123L34.1384 29.6532H34.2319L36.258 24.7126H38.6465V32.6923H36.7684V27.7907H36.7022L34.7852 32.6417H33.5851L31.6681 27.7634H31.6019V32.6923H29.7238V24.7126ZM39.8495 32.6923V24.7126H43.1769C43.7744 24.7126 44.2744 24.797 44.677 24.9659C45.0823 25.1347 45.3862 25.3711 45.5888 25.675C45.794 25.9789 45.8966 26.3309 45.8966 26.7309C45.8966 27.0348 45.833 27.3063 45.7057 27.5452C45.5784 27.7816 45.4031 27.9777 45.1797 28.1336C44.9563 28.2894 44.6978 28.3985 44.4043 28.4609V28.5388C44.7264 28.5544 45.0238 28.6414 45.2966 28.7999C45.5719 28.9583 45.7927 29.1791 45.9589 29.4622C46.1252 29.7428 46.2083 30.0753 46.2083 30.4597C46.2083 30.8883 46.0992 31.2714 45.881 31.6091C45.6628 31.9442 45.3472 32.2092 44.9342 32.404C44.5212 32.5962 44.0199 32.6923 43.4302 32.6923H39.8495ZM41.7782 31.1377H42.9704C43.3886 31.1377 43.6965 31.0584 43.8939 30.9C44.0939 30.7415 44.1939 30.5207 44.1939 30.2376C44.1939 30.0324 44.1458 29.8558 44.0497 29.7077C43.9536 29.557 43.8172 29.4415 43.6406 29.3609C43.464 29.2778 43.2523 29.2362 43.0055 29.2362H41.7782V31.1377ZM41.7782 27.9933H42.8458C43.0562 27.9933 43.2432 27.9582 43.4068 27.8881C43.5705 27.818 43.6978 27.7167 43.7887 27.5842C43.8822 27.4517 43.9289 27.292 43.9289 27.1049C43.9289 26.8374 43.8341 26.627 43.6445 26.4737C43.4549 26.3205 43.199 26.2439 42.8769 26.2439H41.7782V27.9933Z" fill="#1900B4"/>
<circle cx="33.2821" cy="28.7436" r="24.2051" fill="#ACF1F5"/>
<path d="M15.7571 33.6923V25.3829H19.1896C19.8117 25.3829 20.3487 25.5046 20.8004 25.748C21.2548 25.9888 21.6051 26.3255 21.8512 26.7583C22.0974 27.1884 22.2205 27.6888 22.2205 28.2595C22.2205 28.833 22.0947 29.3347 21.8431 29.7648C21.5943 30.1922 21.2386 30.5235 20.776 30.7588C20.3135 30.9942 19.7644 31.1118 19.1288 31.1118H17.0108V29.5295H18.7555C19.0584 29.5295 19.3113 29.4767 19.5142 29.3712C19.7198 29.2657 19.8753 29.1183 19.9808 28.929C20.0863 28.7369 20.139 28.5138 20.139 28.2595C20.139 28.0026 20.0863 27.7807 19.9808 27.5941C19.8753 27.4048 19.7198 27.2587 19.5142 27.1559C19.3086 27.0531 19.0557 27.0017 18.7555 27.0017H17.7655V33.6923H15.7571ZM30.7531 28.3934H28.7244C28.6973 28.1851 28.6419 27.9971 28.558 27.8294C28.4742 27.6617 28.3633 27.5184 28.2253 27.3994C28.0874 27.2803 27.9237 27.1897 27.7344 27.1275C27.5478 27.0626 27.3408 27.0301 27.1136 27.0301C26.7106 27.0301 26.363 27.1289 26.0709 27.3263C25.7815 27.5238 25.5583 27.8092 25.4014 28.1824C25.2472 28.5557 25.1701 29.0074 25.1701 29.5376C25.1701 30.0894 25.2486 30.5519 25.4055 30.9252C25.5651 31.2958 25.7882 31.5757 26.0749 31.7651C26.3644 31.9517 26.7065 32.045 27.1014 32.045C27.3232 32.045 27.5248 32.0166 27.706 31.9598C27.8899 31.903 28.0509 31.8205 28.1888 31.7123C28.3295 31.6014 28.4444 31.4675 28.5337 31.3106C28.6257 31.1511 28.6892 30.9712 28.7244 30.771L30.7531 30.7832C30.7179 31.1511 30.6111 31.5135 30.4325 31.8706C30.2567 32.2276 30.0146 32.5535 29.7063 32.8484C29.3979 33.1405 29.0219 33.3731 28.5783 33.5462C28.1374 33.7194 27.6316 33.8059 27.0609 33.8059C26.3089 33.8059 25.6354 33.6409 25.0403 33.3109C24.4479 32.9782 23.98 32.494 23.6365 31.8584C23.2929 31.2227 23.1212 30.4491 23.1212 29.5376C23.1212 28.6233 23.2956 27.8484 23.6446 27.2127C23.9935 26.5771 24.4655 26.0942 25.0606 25.7642C25.6557 25.4342 26.3224 25.2692 27.0609 25.2692C27.564 25.2692 28.0292 25.3396 28.4566 25.4802C28.884 25.6182 29.26 25.821 29.5845 26.0888C29.9091 26.3539 30.1729 26.6799 30.3757 27.0667C30.5786 27.4535 30.7044 27.8957 30.7531 28.3934ZM31.9023 25.3829H34.3895L36.4993 30.5276H36.5967L38.7065 25.3829H41.1936V33.6923H39.238V28.5882H39.169L37.1728 33.6396H35.9231L33.9269 28.5598H33.8579V33.6923H31.9023V25.3829ZM42.4463 33.6923V25.3829H45.9113C46.5334 25.3829 47.0541 25.4708 47.4734 25.6466C47.8954 25.8224 48.2118 26.0685 48.4228 26.385C48.6365 26.7015 48.7433 27.068 48.7433 27.4846C48.7433 27.801 48.6771 28.0837 48.5445 28.3325C48.412 28.5787 48.2294 28.7829 47.9968 28.9452C47.7642 29.1075 47.495 29.2211 47.1894 29.286V29.3672C47.5248 29.3834 47.8345 29.474 48.1185 29.639C48.4052 29.804 48.6351 30.0339 48.8083 30.3288C48.9814 30.6209 49.0679 30.9671 49.0679 31.3674C49.0679 31.8138 48.9543 32.2127 48.7271 32.5644C48.4999 32.9133 48.1713 33.1892 47.7412 33.3921C47.3111 33.5922 46.7891 33.6923 46.175 33.6923H42.4463ZM44.4547 32.0734H45.6963C46.1318 32.0734 46.4523 31.9909 46.6579 31.8259C46.8661 31.6609 46.9703 31.431 46.9703 31.1362C46.9703 30.9225 46.9202 30.7386 46.8202 30.5844C46.7201 30.4275 46.5781 30.3071 46.3941 30.2233C46.2102 30.1367 45.9898 30.0934 45.7328 30.0934H44.4547V32.0734ZM44.4547 28.7991H45.5664C45.7855 28.7991 45.9803 28.7626 46.1507 28.6896C46.3211 28.6166 46.4536 28.5111 46.5483 28.3731C46.6457 28.2352 46.6944 28.0688 46.6944 27.8741C46.6944 27.5955 46.5957 27.3764 46.3982 27.2168C46.2007 27.0572 45.9343 26.9774 45.5989 26.9774H44.4547V28.7991Z" fill="#1900B4"/>
</g>
<defs>
<clipPath id="clip0_6_6">
<rect width="59" height="59" fill="white"/>
</clipPath>
</defs>
</svg>
